<?xml version="1.0" encoding="UTF-8" standalone="no"?>
<!--suppress ALL -->
lUnknownTag -->
lUnknownTag -->
lUnknownTag -->
lUnknownTag -->
lUnknownTag -->
lUnknownTag -->
lUnknownTag -->
lUnknownTag -->
lUnknownTag -->
lUnknownTag -->
lUnknownTag -->
lUnknownTag -->
lUnknownTag -->
lUnknownTag -->
lUnknownTag -->
lUnknownTag -->
lUnknownTag -->
lUnknownTag -->
lUnknownTag -->
lUnknownTag -->
lUnknownTag -->
lUnknownTag -->
lUnknownTag -->
lUnknownTag -->
lUnknownTag -->
lUnknownTag -->
lUnknownTag -->
lUnknownTag -->
lUnknownTag -->
lUnknownTag -->
lUnknownTag -->
lUnknownTag -->
lUnknownTag -->
lUnknownTag -->
lUnknownTag -->
lUnknownTag -->
lUnknownTag -->
lUnknownTag -->
lUnknownTag -->
lUnknownTag -->
lUnknownTag -->
lUnknownTag -->
lUnknownTag -->
lUnknownTag -->
lUnknownTag -->
lUnknownTag -->
lUnknownTag -->
lUnknownTag -->
lUnknownTag -->
lUnknownTag -->
lUnknownTag -->
lUnknownTag -->
lUnknownTag -->
lUnknownTag -->
lUnknownTag -->
lUnknownTag -->
lUnknownTag -->
lUnknownTag -->
lUnknownTag -->
lUnknownTag -->
lUnknownTag -->
lUnknownTag -->
lUnknownTag -->
lUnknownTag -->
<svg
   xmlns:osb="http://www.openswatchbook.org/uri/2009/osb"
   xmlns:dc="http://purl.org/dc/elements/1.1/"
   xmlns:cc="http://creativecommons.org/ns#"
   xmlns:rdf="http://www.w3.org/1999/02/22-rdf-syntax-ns#"
   xmlns:svg="http://www.w3.org/2000/svg"
   xmlns="http://www.w3.org/2000/svg"
   xmlns:sodipodi="http://sodipodi.sourceforge.net/DTD/sodipodi-0.dtd"
   xmlns:inkscape="http://www.inkscape.org/namespaces/inkscape"
   width="1080"
   height="1080"
   viewBox="0 0 285.74999 285.75001"
   version="1.1"
   id="svg8"
   sodipodi:docname="logo.svg"
   inkscape:version="1.0.1 (3bc2e813f5, 2020-09-07)"
   inkscape:export-filename="/home/sofrito/Documents/Haikode/Desarrollos/SignLanguage-Website/SignLanguage/src/assets/img/logo.png"
   inkscape:export-xdpi="142.3"
   inkscape:export-ydpi="142.3">
  <defs
     id="defs2">
    <linearGradient
       id="linearGradient1590"
       osb:paint="solid">
      <stop
         style="stop-color:#fffff0;stop-opacity:1;"
         offset="0"
         id="stop1588" />
    </linearGradient>
    <filter
       style="color-interpolation-filters:sRGB;"
       inkscape:label="Drop Shadow"
       id="filter2735">
      <feFlood
         flood-opacity="1"
         flood-color="rgb(163,163,163)"
         result="flood"
         id="feFlood2725" />
      <feComposite
         in="flood"
         in2="SourceGraphic"
         operator="in"
         result="composite1"
         id="feComposite2727" />
      <feGaussianBlur
         in="composite1"
         stdDeviation="2"
         result="blur"
         id="feGaussianBlur2729" />
      <feOffset
         dx="2"
         dy="2"
         result="offset"
         id="feOffset2731" />
      <feComposite
         in="SourceGraphic"
         in2="offset"
         operator="over"
         result="composite2"
         id="feComposite2733" />
    </filter>
    <filter
       style="color-interpolation-filters:sRGB;"
       inkscape:label="Drop Shadow"
       id="filter3241">
      <feFlood
         flood-opacity="1"
         flood-color="rgb(42,38,46)"
         result="flood"
         id="feFlood3231" />
      <feComposite
         in="flood"
         in2="SourceGraphic"
         operator="in"
         result="composite1"
         id="feComposite3233" />
      <feGaussianBlur
         in="composite1"
         stdDeviation="1"
         result="blur"
         id="feGaussianBlur3235" />
      <feOffset
         dx="-1"
         dy="1"
         result="offset"
         id="feOffset3237" />
      <feComposite
         in="SourceGraphic"
         in2="offset"
         operator="over"
         result="composite2"
         id="feComposite3239" />
    </filter>
    <filter
       style="color-interpolation-filters:sRGB;"
       inkscape:label="Drop Shadow"
       id="filter3338">
      <feFlood
         flood-opacity="1"
         flood-color="rgb(42,38,46)"
         result="flood"
         id="feFlood3328" />
      <feComposite
         in="flood"
         in2="SourceGraphic"
         operator="in"
         result="composite1"
         id="feComposite3330" />
      <feGaussianBlur
         in="composite1"
         stdDeviation="1"
         result="blur"
         id="feGaussianBlur3332" />
      <feOffset
         dx="-1"
         dy="1"
         result="offset"
         id="feOffset3334" />
      <feComposite
         in="SourceGraphic"
         in2="offset"
         operator="over"
         result="fbSourceGraphic"
         id="feComposite3336" />
      <feColorMatrix
         result="fbSourceGraphicAlpha"
         in="fbSourceGraphic"
         values="0 0 0 -1 0 0 0 0 -1 0 0 0 0 -1 0 0 0 0 1 0"
         id="feColorMatrix5091" />
      <feFlood
         id="feFlood5093"
         flood-opacity="1"
         flood-color="rgb(235,235,235)"
         result="flood"
         in="fbSourceGraphic" />
      <feComposite
         in2="fbSourceGraphic"
         id="feComposite5095"
         in="flood"
         operator="in"
         result="composite1" />
      <feGaussianBlur
         id="feGaussianBlur5097"
         in="composite1"
         stdDeviation="0.2"
         result="blur" />
      <feOffset
         id="feOffset5099"
         dx="-1"
         dy="1"
         result="offset" />
      <feComposite
         in2="offset"
         id="feComposite5101"
         in="fbSourceGraphic"
         operator="over"
         result="composite2" />
    </filter>
    <filter
       style="color-interpolation-filters:sRGB;"
       inkscape:label="Drop Shadow"
       id="filter5575">
      <feFlood
         flood-opacity="1"
         flood-color="rgb(42,38,43)"
         result="flood"
         id="feFlood5565" />
      <feComposite
         in="flood"
         in2="SourceGraphic"
         operator="in"
         result="composite1"
         id="feComposite5567" />
      <feGaussianBlur
         in="composite1"
         stdDeviation="2"
         result="blur"
         id="feGaussianBlur5569" />
      <feOffset
         dx="2"
         dy="2"
         result="offset"
         id="feOffset5571" />
      <feComposite
         in="SourceGraphic"
         in2="offset"
         operator="over"
         result="composite2"
         id="feComposite5573" />
    </filter>
    <filter
       style="color-interpolation-filters:sRGB;"
       inkscape:label="Drop Shadow"
       id="filter5587">
      <feFlood
         flood-opacity="1"
         flood-color="rgb(42,38,43)"
         result="flood"
         id="feFlood5577" />
      <feComposite
         in="flood"
         in2="SourceGraphic"
         operator="in"
         result="composite1"
         id="feComposite5579" />
      <feGaussianBlur
         in="composite1"
         stdDeviation="2"
         result="blur"
         id="feGaussianBlur5581" />
      <feOffset
         dx="2"
         dy="2"
         result="offset"
         id="feOffset5583" />
      <feComposite
         in="SourceGraphic"
         in2="offset"
         operator="over"
         result="composite2"
         id="feComposite5585" />
    </filter>
    <filter
       style="color-interpolation-filters:sRGB;"
       inkscape:label="Drop Shadow"
       id="filter5983">
      <feFlood
         flood-opacity="1"
         flood-color="rgb(163,163,163)"
         result="flood"
         id="feFlood5973" />
      <feComposite
         in="flood"
         in2="SourceGraphic"
         operator="in"
         result="composite1"
         id="feComposite5975" />
      <feGaussianBlur
         in="composite1"
         stdDeviation="3"
         result="blur"
         id="feGaussianBlur5977" />
      <feOffset
         dx="1"
         dy="1"
         result="offset"
         id="feOffset5979" />
      <feComposite
         in="SourceGraphic"
         in2="offset"
         operator="over"
         result="composite2"
         id="feComposite5981" />
    </filter>
    <filter
       style="color-interpolation-filters:sRGB;"
       inkscape:label="Drop Shadow"
       id="filter6718">
      <feFlood
         flood-opacity="1"
         flood-color="rgb(163,163,163)"
         result="flood"
         id="feFlood6708" />
      <feComposite
         in="flood"
         in2="SourceGraphic"
         operator="out"
         result="composite1"
         id="feComposite6710" />
      <feGaussianBlur
         in="composite1"
         stdDeviation="100"
         result="blur"
         id="feGaussianBlur6712" />
      <feOffset
         dx="0"
         dy="0"
         result="offset"
         id="feOffset6714" />
      <feComposite
         in="offset"
         in2="SourceGraphic"
         operator="atop"
         result="composite2"
         id="feComposite6716" />
    </filter>
    <filter
       style="color-interpolation-filters:sRGB;"
       inkscape:label="Drop Shadow"
       id="filter6826">
      <feFlood
         flood-opacity="1"
         flood-color="rgb(163,163,163)"
         result="flood"
         id="feFlood6816" />
      <feComposite
         in="flood"
         in2="SourceGraphic"
         operator="in"
         result="composite1"
         id="feComposite6818" />
      <feGaussianBlur
         in="composite1"
         stdDeviation="10"
         result="blur"
         id="feGaussianBlur6820" />
      <feOffset
         dx="0"
         dy="0"
         result="offset"
         id="feOffset6822" />
      <feComposite
         in="SourceGraphic"
         in2="offset"
         operator="over"
         result="composite2"
         id="feComposite6824" />
    </filter>
    <filter
       style="color-interpolation-filters:sRGB;"
       inkscape:label="Drop Shadow"
       id="filter7982">
      <feFlood
         flood-opacity="1"
         flood-color="rgb(163,163,163)"
         result="flood"
         id="feFlood7972" />
      <feComposite
         in="flood"
         in2="SourceGraphic"
         operator="in"
         result="composite1"
         id="feComposite7974" />
      <feGaussianBlur
         in="composite1"
         stdDeviation="5"
         result="blur"
         id="feGaussianBlur7976" />
      <feOffset
         dx="0"
         dy="0"
         result="offset"
         id="feOffset7978" />
      <feComposite
         in="SourceGraphic"
         in2="offset"
         operator="over"
         result="composite2"
         id="feComposite7980" />
    </filter>
  </defs>
  <sodipodi:namedview
     id="base"
     pagecolor="#ffffff"
     bordercolor="#666666"
     borderopacity="1.0"
     inkscape:pageopacity="0.0"
     inkscape:pageshadow="2"
     inkscape:zoom="0.7"
     inkscape:cx="428.1495"
     inkscape:cy="541.00777"
     inkscape:document-units="mm"
     inkscape:current-layer="layer2"
     showgrid="false"
     units="px"
     inkscape:pagecheckerboard="true"
     borderlayer="false"
     inkscape:snap-text-baseline="false"
     inkscape:window-width="1920"
     inkscape:window-height="1054"
     inkscape:window-x="0"
     inkscape:window-y="0"
     inkscape:window-maximized="1"
     inkscape:document-rotation="0">
    <inkscape:grid
       type="xygrid"
       id="grid1366"
       empcolor="#000000"
       empopacity="0.25098039"
       dotted="false"
       color="#9700ff"
       opacity="0.1254902" />
  </sodipodi:namedview>
  <metadata
     id="metadata5">
    <rdf:RDF>
      <cc:Work
         rdf:about="">
        <dc:format>image/svg+xml</dc:format>
        <dc:type
           rdf:resource="http://purl.org/dc/dcmitype/StillImage" />
        <dc:title />
      </cc:Work>
    </rdf:RDF>
  </metadata>
  <g
     inkscape:label="Layer 1"
     inkscape:groupmode="layer"
     id="layer1"
     transform="translate(0,-11.249983)">
    <rect
       style="opacity:1;fill:#17a2b8;fill-opacity:0;fill-rule:nonzero;stroke:none;stroke-width:11.11250019;stroke-miterlimit:4;stroke-dasharray:none;stroke-opacity:1"
       id="rect1368"
       width="275.16666"
       height="275.16666"
       x="5.2916665"
       y="16.541649" />
  </g>
  <g
     inkscape:groupmode="layer"
     id="layer2"
     inkscape:label="Layer 2">
    <text
       xml:space="preserve"
       style="font-style:normal;font-variant:normal;font-weight:normal;font-stretch:normal;font-size:202.884px;line-height:1.25;font-family:'Fleischmann Mexican Hand sign';-inkscape-font-specification:'Fleischmann Mexican Hand sign, Normal';font-variant-ligatures:normal;font-variant-caps:normal;font-variant-numeric:normal;font-feature-settings:normal;text-align:start;letter-spacing:0px;word-spacing:0px;writing-mode:lr-tb;text-anchor:start;fill:#17a2b8;fill-opacity:0.966245;stroke:#fffffe;stroke-width:12.4188;stroke-linecap:square;stroke-linejoin:round;stroke-miterlimit:4;stroke-dasharray:none;stroke-opacity:1;paint-order:markers stroke fill;filter:url(#filter5575)"
       x="158.42841"
       y="258.79578"
       id="text3354-8" />
    <g
       id="g6935"
       transform="matrix(0.03527778,0,0,-0.03527778,-60.312244,290.12672)"
       style="fill:#000000;stroke:none" />
    <g
       id="g101"
       transform="matrix(1.240924,0,0,1.240924,-34.422032,-34.422033)">
      <g
         transform="matrix(0.91127818,0,0,0.91127818,23.52605,-8.4256414)"
         id="g917">
        <ellipse
           style="opacity:1;fill:#ffffff;fill-opacity:1;fill-rule:nonzero;stroke:none;stroke-width:9.13461494;stroke-linecap:square;stroke-linejoin:round;stroke-miterlimit:4.80000019;stroke-dasharray:none;stroke-opacity:1;paint-order:stroke fill markers"
           id="path914"
           cx="130.96873"
           cy="166.03123"
           rx="125.67706"
           ry="125.67708" />
      </g>
      <g
         style="fill:none"
         id="g7459">
        <path
           inkscape:connector-curvature="0"
           id="path7463"
           d="M 33.615108,142.875 V 33.50869 H 143.06399 252.51288 V 142.875 252.24131 H 143.06399 33.615108 Z"
           style="fill:none;stroke-width:0.21623574" />
        <path
           inkscape:connector-curvature="0"
           id="path7461"
           d="m 138.02934,252.01608 c -3.99372,-0.1687 -8.57802,-0.63716 -12.58662,-1.28616 -3.26919,-0.5293 -6.61556,-1.21959 -7.08623,-1.46173 -0.19596,-0.10082 -1.53834,-0.4895 -2.98306,-0.86374 -8.31561,-2.15407 -17.598576,-5.80339 -24.791585,-9.74608 -12.164738,-6.66783 -23.416455,-15.98556 -31.971847,-26.4764 -1.241835,-1.52277 -2.528326,-3.05931 -2.858871,-3.41454 -0.736164,-0.79112 -3.873818,-5.4323 -6.206129,-9.18002 -2.427731,-3.90104 -6.224524,-11.41884 -8.018909,-15.87775 -4.239463,-10.53473 -6.755853,-21.27095 -7.688253,-32.80205 -0.288919,-3.57309 -0.286183,-13.34043 0.0048,-17.01477 1.524656,-19.25456 7.723698,-37.084237 18.340175,-52.749995 1.154445,-1.703509 2.232237,-3.337595 2.395093,-3.631304 0.162856,-0.293708 0.619632,-0.870444 1.015058,-1.281636 0.395426,-0.411192 1.201431,-1.372419 1.791124,-2.136061 C 62.683731,67.23085 71.31164,59.012051 79.077123,53.429388 90.49354,45.222041 102.27281,39.839001 117.12461,36.041965 c 5.54649,-1.418025 6.51587,-1.62607 9.8504,-2.114043 2.57895,-0.377403 4.08318,-0.416566 16.04888,-0.417833 16.08644,-0.0017 15.79161,-0.03138 26.19839,2.636996 6.45443,1.654965 10.74691,3.112867 18.16851,6.170761 2.69705,1.111254 7.36699,3.510065 11.13538,5.719919 11.08202,6.498688 21.35513,15.362211 29.49458,25.447588 1.00992,1.251356 2.13172,2.632943 2.4929,3.070194 0.36118,0.43725 0.80445,1.019019 0.98504,1.292819 0.18059,0.2738 1.18815,1.744555 2.23902,3.268346 8.29336,12.025569 14.51787,27.368498 16.99563,41.892928 2.35725,13.81798 2.36238,25.15277 0.0176,38.9831 -2.36563,13.95343 -8.22486,28.73856 -15.99367,40.35829 -0.94745,1.41709 -2.07603,3.15327 -2.50796,3.85817 -0.43193,0.7049 -0.95959,1.42582 -1.17258,1.60205 -0.21298,0.17622 -1.01579,1.13745 -1.784,2.13606 -5.58088,7.25459 -13.5536,15.01306 -21.435,20.85901 -10.68774,7.92751 -23.80456,14.14858 -37.10318,17.59734 -1.44472,0.37467 -2.79702,0.76888 -3.0051,0.87604 -0.20809,0.10715 -1.58714,0.4364 -3.06457,0.73167 -8.3187,1.66254 -17.82706,2.37763 -26.65554,2.00471 z m 5.47221,-10.61528 c -1.4e-4,-0.0881 -0.96055,-0.68025 -2.13426,-1.31586 -1.1737,-0.63561 -3.31606,-1.87211 -4.76078,-2.74779 l -2.62677,-1.59212 -4.70631,0.26254 c -2.59419,0.14473 -7.62893,0.22753 -11.21865,0.18452 -3.58179,-0.0429 -6.51229,-0.0108 -6.51221,0.0715 2e-4,0.20828 4.16734,1.50076 7.42489,2.3029 6.46326,1.59152 11.5924,2.36837 18.84299,2.85394 2.1475,0.14382 5.69133,0.13161 5.6911,-0.0196 z m 26.02283,-3.47126 c 4.70093,-1.29644 10.96907,-3.57758 10.97258,-3.9932 8.8e-4,-0.0946 -0.86111,-2.02091 -1.91535,-4.28075 -2.03786,-4.36828 -2.08564,-4.42366 -3.29579,-3.82036 -1.11379,0.55526 -8.53623,3.10308 -12.1817,4.18147 -2.99358,0.88556 -7.81116,2.13027 -11.1542,2.88191 -0.53934,0.12126 -0.5893,0.18623 -0.32835,0.42697 0.98909,0.91248 12.83685,5.45582 14.23229,5.45775 0.31446,4.3e-4 1.96619,-0.38377 3.67052,-0.85379 z m 22.87955,-9.53922 c 2.09158,-1.17415 5.61396,-3.45254 8.26117,-5.34358 l 1.89163,-1.35128 0.36271,-1.54856 c 0.45852,-1.95761 1.87372,-8.85829 1.87372,-9.13649 0,-0.41251 -0.48688,-0.18618 -2.68879,1.24988 -4.05154,2.64237 -10.94661,6.55509 -14.02018,7.95599 -0.82258,0.37492 -1.5468,0.8119 -1.6094,0.97108 -0.0626,0.15917 0.16476,0.74717 0.50522,1.30667 0.55993,0.92016 2.86706,5.60242 3.21148,6.51762 0.0774,0.2056 0.20797,0.37381 0.29021,0.37381 0.0823,0 0.94725,-0.44781 1.92223,-0.99514 z m -72.03224,-2.58276 c 0.0544,-0.0881 -0.94946,-1.12116 -2.23078,-2.29566 -3.12649,-2.86582 -7.29361,-7.1484 -9.87332,-10.1469 -2.2275,-2.5891 -5.69968,-6.9273 -5.69968,-7.12126 0,-0.0629 -0.71416,-1.07771 -1.58701,-2.25508 -0.87286,-1.17736 -2.330614,-3.22126 -3.239463,-4.54198 l -1.65245,-2.40132 -7.322358,-0.0428 c -7.299146,-0.0427 -11.165343,-0.23047 -17.391656,-0.84465 -3.211344,-0.31677 -10.45973,-1.27772 -11.437408,-1.51631 -0.340555,-0.0831 -0.49252,-0.0248 -0.49252,0.18883 0,0.42126 3.488891,5.57575 5.460895,8.06793 0.883139,1.11609 1.911923,2.45551 2.286188,2.97649 1.935569,2.69433 7.344874,8.25035 11.479989,11.79136 2.616362,2.24045 2.76495,2.33253 4.780707,2.96263 10.019695,3.13201 22.747596,5.0874 34.479726,5.29714 1.28713,0.023 2.38474,-0.0303 2.43914,-0.11837 z m 20.24348,-1.44806 c 6.59273,-0.97505 12.79477,-2.33711 18.9756,-4.16732 4.91141,-1.45432 11.73066,-3.84471 12.2432,-4.29169 0.12128,-0.10576 -0.70736,-2.14722 -2.0463,-5.04132 -4.50895,-9.74605 -12.10827,-26.01293 -12.19413,-26.10242 -0.0485,-0.0505 -0.85022,0.17786 -1.78167,0.5075 -12.81973,4.53694 -23.59271,7.35407 -35.51325,9.28669 -3.69777,0.59951 -10.50617,1.51197 -11.2816,1.51197 -0.59858,0 -0.3166,0.53167 1.74658,3.29313 7.6086,10.18372 14.80872,17.45882 23.76556,24.01303 1.14254,0.83607 2.15743,1.52249 2.2553,1.52539 0.0979,0.003 1.82169,-0.23783 3.83071,-0.53496 z m 49.8325,-17.3111 c 0.6062,-0.39449 2.38005,-1.52811 3.94189,-2.51916 6.12335,-3.8855 11.59962,-7.92367 11.94393,-8.80738 0.27588,-0.70808 0.26964,-12.95522 -0.009,-16.96104 -0.54838,-7.89378 -2.23365,-20.03064 -2.83143,-20.39115 -0.15818,-0.0954 -5.54307,3.92935 -6.82986,5.10475 -1.03539,0.94576 -8.92214,6.31495 -9.27598,6.31495 -0.07,0 -0.68892,0.35319 -1.37541,0.78487 -3.19252,2.00757 -9.71854,5.57943 -13.85357,7.58243 -2.50498,1.21341 -4.55981,2.33398 -4.56628,2.49017 -0.006,0.15618 2.56496,5.77936 5.7143,12.49595 3.14933,6.71659 5.89912,12.64454 6.11063,13.17321 0.73604,1.83975 2.20011,4.79742 2.44908,4.94758 0.26788,0.16155 6.74417,-3.01961 8.58135,-4.21518 z m 26.47275,1.24148 c 1.86124,-2.01036 7.25133,-9.29618 9.36164,-12.65418 1.14603,-1.8236 3.60848,-6.05924 4.32597,-7.44107 0.66454,-1.27984 0.23066,-0.95835 -1.96958,1.4594 -2.87646,3.16082 -6.86715,7.10943 -9.51563,9.41529 l -2.41603,2.10348 -0.37802,3.69303 c -0.41188,4.02394 -0.42446,4.22705 -0.2618,4.22705 0.0605,0 0.44456,-0.36135 0.85345,-0.803 z M 90.090733,186.49977 c 0,-0.0905 -0.680483,-1.6176 -1.512186,-3.39364 -3.40203,-7.26479 -6.021166,-14.23886 -8.129749,-21.6474 -1.208878,-4.24741 -3.049014,-11.78868 -3.052194,-12.50853 -0.0045,-1.0127 -0.311111,-1.10178 -4.708244,-1.36783 -8.793822,-0.53207 -20.028929,-2.2354 -26.698063,-4.04763 -0.838651,-0.22789 -1.61397,-0.36058 -1.72293,-0.29486 -0.345306,0.20825 0.188213,8.25654 0.860805,12.9855 0.939221,6.60361 2.323748,12.45557 4.343817,18.35997 1.350187,3.94641 2.87718,7.68065 3.271253,7.99979 0.586278,0.47481 12.098033,2.42586 18.303385,3.10213 6.82461,0.74375 19.044106,1.26509 19.044106,0.8125 z m 16.003597,-0.58623 c 12.07725,-1.15973 23.0765,-3.29853 35.014,-6.80846 5.00409,-1.47133 11.30344,-3.61326 11.66548,-3.96654 0.14626,-0.14273 -0.29729,-1.33422 -1.33363,-3.58253 -1.86873,-4.05417 -3.07307,-6.67217 -5.28366,-11.48572 -0.91722,-1.99722 -2.17324,-4.59253 -2.79118,-5.76737 -0.61794,-1.17483 -2.531,-5.16392 -4.25125,-8.86465 -1.72024,-3.70072 -3.24694,-6.85751 -3.39267,-7.01508 -0.21924,-0.23704 -0.6757,-0.13982 -2.64506,0.56339 -12.78099,4.5638 -28.8993,7.85081 -41.727891,8.50959 -1.898728,0.0975 -2.868957,0.23401 -3.032837,0.4267 -0.266261,0.31307 -0.04708,1.46266 1.236792,6.48686 2.449282,9.58482 7.085381,21.98181 10.065156,26.91436 0.39034,0.64616 1.16976,2.01591 1.73204,3.04389 0.56227,1.02798 1.10186,1.86905 1.19908,1.86905 0.0972,0 1.69276,-0.14557 3.54563,-0.32349 z M 219.931,183.51356 c 3.37287,-3.68937 5.98985,-6.85523 8.25475,-9.98609 1.10485,-1.52728 2.29853,-3.12655 2.65262,-3.55392 1.9952,-2.40819 6.9273,-11.31655 9.56299,-17.27267 l 1.27608,-2.88368 -0.008,-7.47622 c -0.008,-7.95689 -0.21078,-10.57298 -1.31155,-16.92398 -0.45854,-2.64558 -1.44118,-7.32314 -1.7734,-8.44174 -0.15393,-0.51828 -0.5825,-0.4645 -0.86445,0.10847 -1.5719,3.19429 -5.33503,9.44872 -6.57339,10.92518 -0.30506,0.36371 -1.62655,2.15119 -2.93665,3.97218 -3.90993,5.43464 -7.60426,9.81582 -12.85547,15.24554 -1.35443,1.40047 -2.4626,2.70929 -2.4626,2.9085 0,0.1992 0.29438,1.71734 0.65417,3.37364 1.83808,8.46166 3.03033,17.70694 3.50825,27.20485 0.22565,4.48436 0.30356,5.30981 0.50117,5.30981 0.0443,0 1.11302,-1.12945 2.37503,-2.50987 z m -52.31783,-14.76025 c 5.67734,-2.82011 8.37717,-4.38956 15.76354,-9.16363 2.0449,-1.32169 3.7665,-2.40307 3.82578,-2.40307 0.51246,0 12.28266,-9.25462 13.16962,-10.35495 l 0.43809,-0.54347 -0.75448,-2.50762 c -3.06284,-10.17986 -9.50203,-25.40416 -12.76037,-30.1696 -0.44181,-0.64616 -1.23429,-1.91979 -1.76107,-2.83028 -0.52678,-0.9105 -1.07624,-1.65545 -1.22101,-1.65545 -0.14477,0 -1.28463,0.88113 -2.53301,1.95806 -9.60919,8.28949 -19.94545,15.11258 -31.4372,20.75209 -2.43758,1.19623 -4.43229,2.27336 -4.43268,2.39362 -4.4e-4,0.12027 1.43761,3.29232 3.19557,7.049 5.87535,12.55541 6.58221,14.07071 8.567,18.36507 1.08598,2.34966 2.5852,5.61784 3.3316,7.2626 1.43661,3.16569 1.87042,3.95172 2.18098,3.95172 0.10546,0 2.0979,-0.94684 4.42764,-2.10409 z m 43.78785,-32.76711 c 2.22083,-2.40541 4.92867,-5.70968 7.36874,-8.99175 2.08846,-2.80912 4.41082,-6.19091 4.41082,-6.42297 0,-0.0714 0.47523,-0.87369 1.05607,-1.7829 2.20379,-3.44969 4.76197,-8.08394 7.69258,-13.93546 1.5234,-3.04175 1.50255,-2.6806 0.29202,-5.057603 -1.23386,-2.422849 -4.16417,-7.609546 -5.52988,-9.78802 -1.53365,-2.44635 -5.00375,-7.338789 -6.66627,-9.398668 -0.85339,-1.05735 -1.96619,-2.455098 -2.47291,-3.10611 -1.32938,-1.707945 -4.21277,-4.690511 -4.53454,-4.690511 -0.27604,0 -0.42577,0.245424 -2.54125,4.165318 -3.68327,6.824979 -9.46626,14.728015 -16.49012,22.535441 -0.79269,0.881123 -1.44354,1.684323 -1.44633,1.784873 -0.003,0.10056 0.62188,1.20597 1.38813,2.45647 5.44311,8.88296 10.38102,19.48145 14.24579,30.57645 0.55247,1.58602 1.04902,3.00383 1.10345,3.15069 0.18227,0.49179 0.48769,0.27675 2.1237,-1.49525 z m -136.095879,0.48062 c -0.0055,-0.41119 -0.19793,-2.81426 -0.427635,-5.34015 -0.52357,-5.75735 -0.585076,-18.12397 -0.116863,-23.49667 0.168932,-1.93848 0.313549,-3.80247 0.321371,-4.14221 l 0.01423,-0.61772 -2.874165,-0.48105 c -5.057239,-0.84643 -9.582307,-2.07516 -14.223563,-3.862249 -1.337363,-0.514942 -2.632309,-0.936259 -2.877657,-0.936259 -0.36481,0 -0.715078,0.593515 -1.922436,3.257488 -3.293731,7.26746 -5.469894,13.92038 -6.976367,21.32801 -0.664025,3.26514 -1.44035,8.33785 -1.441974,9.42222 l -0.0012,0.79198 1.47756,0.42787 c 7.454372,2.15861 22.645907,4.56232 27.96419,4.42468 l 1.094489,-0.0283 -0.01,-0.74762 z m 17.207026,0.54018 c 10.558153,-0.90893 18.680153,-2.37078 28.333703,-5.09968 4.50024,-1.27214 9.69392,-2.99899 10.04231,-3.33895 0.14298,-0.13952 -0.34791,-1.42971 -1.44312,-3.79292 -0.91289,-1.9698 -2.61669,-5.64811 -3.78623,-8.174 -5.71352,-12.33967 -8.72596,-18.702341 -8.91014,-18.819419 -0.11152,-0.07089 -1.10686,0.193735 -2.21185,0.588058 -7.66561,2.735491 -17.326431,4.625931 -25.321698,4.954961 l -3.392916,0.13963 -0.141421,1.38844 c -0.914645,8.97982 -0.734945,23.65006 0.381931,31.17951 0.07899,0.53251 0.186133,1.0403 0.238095,1.12841 0.14308,0.24262 2.194752,0.19174 6.211336,-0.15404 z m 52.426123,-14.19207 c 1.97014,-0.92947 4.00433,-1.97558 4.52043,-2.3247 0.51609,-0.34912 2.51077,-1.52325 4.43263,-2.6092 5.88865,-3.32738 12.00612,-7.47916 17.5199,-11.89034 3.19452,-2.55571 6.68076,-5.59948 6.82051,-5.95486 0.12338,-0.31376 -3.21011,-4.751682 -6.08533,-8.101483 -2.86904,-3.342595 -6.91668,-7.519252 -9.96793,-10.285638 -1.53789,-1.394316 -3.18638,-2.919613 -3.66331,-3.389546 -1.34093,-1.321252 -4.77473,-3.952149 -5.15283,-3.947985 -0.18619,0.0021 -1.56982,1.16857 -3.07474,2.592265 -2.78415,2.633881 -5.70954,5.117833 -6.89528,5.854789 -0.36118,0.224481 -1.63686,1.115566 -2.83485,1.98019 -3.15676,2.278342 -6.5709,4.438508 -10.18957,6.447059 -1.74571,0.968962 -3.30301,1.878445 -3.46067,2.021078 -0.33435,0.302475 -0.71479,-0.561668 6.9473,15.780171 2.91126,6.20918 5.48417,11.7622 5.71757,12.34003 0.55571,1.37578 1.49521,3.17812 1.65663,3.17812 0.0701,0 1.7394,-0.76048 3.70954,-1.68995 z M 92.608057,92.664699 c 3.315531,-0.316112 6.878451,-0.927119 10.507093,-1.801866 3.52945,-0.850834 8.40395,-2.379202 8.82287,-2.766357 0.23312,-0.215436 -0.0647,-1.009419 -1.61388,-4.303126 -1.04486,-2.22142 -2.18246,-4.699334 -2.52801,-5.506476 -1.60285,-3.744073 -7.989105,-17.193578 -8.465525,-17.828486 -0.293969,-0.391758 -0.611014,-0.632065 -0.704547,-0.534015 -0.09353,0.09805 -0.784348,1.47593 -1.535148,3.061955 -3.467645,7.325232 -6.182574,15.045423 -8.187864,23.283062 -1.073525,4.409992 -1.468283,6.402879 -1.31595,6.643401 0.07557,0.119321 0.6652,0.16026 1.372776,0.09532 0.682171,-0.06261 2.323854,-0.217146 3.648185,-0.343412 z M 76.605203,92.287178 c 0.06158,-0.09723 0.42059,-1.654382 0.797795,-3.460327 1.695295,-8.116561 4.179159,-16.401089 7.027196,-23.43808 0.72525,-1.791967 1.282104,-3.365076 1.237449,-3.495798 -0.09207,-0.269522 -3.370956,2.174433 -6.631248,4.942671 -3.718051,3.15691 -9.229329,8.756741 -11.383437,11.56634 -0.240374,0.313518 -1.431723,1.851482 -2.647444,3.417697 -1.215718,1.566215 -2.728201,3.603165 -3.361072,4.526554 -0.957715,1.397356 -1.100951,1.724547 -0.854167,1.951153 0.749057,0.687816 8.101905,2.922216 11.898085,3.615618 0.96315,0.175928 1.94819,0.360712 2.188978,0.410636 0.781651,0.162059 1.613246,0.144509 1.727865,-0.03646 z M 187.41072,90.915322 c 1.33853,-1.36528 2.52702,-2.771224 4.83021,-5.713962 1.89651,-2.423143 5.10971,-6.914875 5.10971,-7.142865 0,-0.07714 0.34757,-0.670469 0.77238,-1.318499 2.49331,-3.803444 6.45125,-10.833553 6.45125,-11.458735 0,-0.666686 -6.38369,-5.28507 -11.48174,-8.306643 -2.88695,-1.711079 -7.68739,-4.084111 -11.81835,-5.84224 -3.13314,-1.333464 -8.03868,-3.098475 -8.61165,-3.098475 -0.28164,0 -0.64947,0.511555 -1.26217,1.755374 -1.79807,3.650169 -5.79981,9.839655 -9.21267,14.249215 -0.76614,0.989883 -1.38899,1.95111 -1.38412,2.136061 0.005,0.184953 1.04404,1.153319 2.30927,2.151927 6.69222,5.281955 14.6251,13.417888 20.98371,21.520812 0.94498,1.204204 1.82987,2.189462 1.96643,2.189462 0.13655,0 0.74303,-0.504644 1.34774,-1.121432 z M 128.01857,80.448247 c 1.53711,-0.926188 3.22375,-2.037933 3.7481,-2.470545 0.52434,-0.432614 1.97556,-1.521676 3.22494,-2.420137 1.24937,-0.898462 3.38917,-2.580609 4.7551,-3.738107 1.36593,-1.157497 2.89275,-2.401011 3.39292,-2.763364 0.95709,-0.693376 1.1258,-1.098826 0.58106,-1.396486 -5.99882,-3.277913 -8.8183,-4.67118 -12.95737,-6.402974 -5.90375,-2.470134 -12.77397,-4.606678 -18.8163,-5.851598 -3.04591,-0.627558 -3.03108,-0.626439 -3.03108,-0.228776 0,0.16883 1.58754,3.70134 3.52787,7.850023 1.94033,4.148683 4.84675,10.421403 6.45871,13.939377 1.61197,3.517975 3.04331,6.464143 3.18077,6.547044 0.29548,0.178203 2.09984,-0.75341 5.93528,-3.064457 z m 25.91349,-23.072269 c 3.50003,-4.567467 7.95499,-11.603926 7.6508,-12.084207 -0.27576,-0.435402 -7.11307,-1.385302 -12.49918,-1.736498 -8.81477,-0.574757 -18.45458,0.148582 -26.99872,2.025893 -2.20794,0.485125 -2.62898,0.63363 -2.40797,0.849303 0.0594,0.05798 1.45148,0.488765 3.09347,0.957305 3.29828,0.941157 7.24354,2.301699 10.96306,3.780664 4.94418,1.965917 13.23775,6.053803 16.44465,8.105532 0.60197,0.38513 1.24225,0.70367 1.42284,0.707865 0.18059,0.0042 1.22956,-1.16844 2.33105,-2.605857 z"
           style="fill:none;stroke-width:0.21623574" />
      </g>
      <g
         transform="translate(-0.2660415,0.85105868)"
         id="g7966">
        <path
           sodipodi:nodetypes="csscssscsscccsscsssscccssccccccscscccsccccssssscscscccscssssccccssssssscccscccssscssssccccc"
           inkscape:connector-curvature="0"
           id="path7970"
           d="m 121.97292,249.92431 c -5.88034,-1.16557 -13.64688,-3.55523 -20.50521,-6.3092 -12.729458,-5.11152 -24.582317,-12.90687 -34.888394,-22.9453 -2.991374,-2.91369 -4.836144,-4.95853 -9.793115,-10.85523 -1.803472,-2.14536 -6.962754,-9.94498 -9.182815,-13.88225 -3.986011,-7.06916 -7.366677,-15.16527 -9.640485,-23.08727 -1.445514,-5.03621 -2.246553,-8.78822 -3.206951,-15.0211 -0.709753,-4.60622 -0.73396,-5.10979 -0.737674,-15.34584 -0.004,-11.11361 0.129592,-12.85235 1.59622,-20.76979 C 39.327148,101.66596 49.259514,82.363604 63.672831,67.180338 79.936396,50.047991 99.57199,39.50961 124.61875,34.470806 c 16.67556,-1.935141 22.0291,-1.779861 35.16896,-0.22674 2.31352,0.371771 4.51168,0.792017 4.8848,0.933878 0.37312,0.141862 2.25906,0.627825 4.19097,1.079921 9.81862,2.297703 21.62731,7.110457 30.29915,12.348742 33.16345,20.032596 53.12991,55.328983 53.10123,93.871513 -0.005,7.2607 -0.4155,11.93852 -1.7049,19.44688 -5.22609,30.43236 -24.02084,57.81581 -50.86891,74.11462 -5.91016,3.58791 -16.14496,8.43538 -17.81021,8.43538 -0.88825,0 -1.00076,-0.98452 -0.82745,-7.24008 0.16722,-6.03579 0.36536,-7.19135 3.22721,-18.82138 1.51399,-6.15253 1.9975,-7.64772 4.57747,-14.15521 1.58658,-4.00182 3.26615,-8.40673 3.73238,-9.78869 1.26961,-3.76322 2.44763,-11.0653 3.32951,-20.63839 1.43767,-15.60627 2.41032,-21.62336 4.23414,-26.19375 1.63914,-4.10759 3.88425,-8.65701 5.94092,-12.03854 3.69691,-6.07835 4.76518,-8.02281 6.24579,-11.36853 1.64743,-3.72267 2.39931,-5.07769 5.50044,-9.91272 2.48297,-3.87127 4.06959,-7.15995 5.48847,-11.37629 1.63595,-4.861408 1.34835,-7.924105 -0.96095,-10.233412 -1.25943,-1.25943 -2.44101,-1.690534 -4.61569,-1.684055 -2.00887,0.006 -3.45883,0.73695 -5.41081,2.727741 -2.25267,2.297461 -4.20584,5.360484 -7.33013,11.495386 -4.19877,8.24473 -6.62879,11.63198 -14.25416,19.86911 -4.38564,4.73749 -5.24406,5.32432 -7.78326,5.32081 -2.46887,-0.003 -4.48979,-0.88529 -5.03856,-2.19869 -1.01021,-2.41778 -1.00817,-6.47513 0.008,-15.12893 0.74903,-6.38128 0.88636,-8.44367 1.05707,-15.875005 0.15773,-6.866139 0.44714,-12.145708 1.19543,-21.808072 0.16256,-2.099024 0.25411,-6.266212 0.20345,-9.260417 -0.0856,-5.061413 -0.13451,-5.523875 -0.69542,-6.580412 -0.95725,-1.803104 -2.43679,-3.251221 -4.15226,-4.064082 -1.31265,-0.621985 -1.93693,-0.752261 -3.60571,-0.752433 -2.34042,-2.43e-4 -3.31737,0.342961 -5.19014,1.823299 -2.74889,2.172872 -3.22106,4.356828 -3.23814,14.977534 -0.0176,10.943161 -0.41495,14.37736 -3.04606,26.326041 -1.80578,8.200577 -1.88402,8.695737 -2.50831,15.875237 -0.65556,7.53916 -1.0566,8.79147 -2.68456,8.38288 -1.02144,-0.25637 -2.84215,-1.97971 -3.53401,-3.34504 -0.93176,-1.83875 -1.40194,-4.73559 -3.03376,-18.69158 -0.61571,-5.26589 -1.28005,-8.571949 -3.58324,-17.831913 -1.76809,-7.108577 -2.52648,-10.761904 -3.04835,-14.684375 -0.17424,-1.309688 -0.78289,-5.23875 -1.35254,-8.73125 -2.00427,-12.287983 -2.85665,-14.272784 -6.75923,-15.739036 -1.20604,-0.453131 -1.94752,-0.556641 -3.39512,-0.473962 -4.25576,0.243068 -7.5315,3.26358 -8.34876,7.69828 -0.38668,2.098223 0.23548,8.298939 1.74369,17.378259 1.07141,6.449822 1.96289,13.707938 2.37231,19.314584 0.30589,4.188878 0.69819,6.727235 2.40719,15.575763 1.90775,9.87756 3.0162,16.38036 3.0162,17.69473 0,1.27158 -0.58009,1.336 -2.32619,0.25833 -2.71928,-1.67832 -3.82922,-3.79067 -10.11043,-19.24132 -1.92268,-4.72943 -4.14704,-10.087243 -4.94304,-11.906253 -2.80504,-6.410066 -3.59571,-8.649399 -4.87305,-13.801424 -2.71228,-10.939785 -5.17244,-16.263932 -8.25073,-17.855776 -1.314953,-0.679987 -4.172387,-0.789014 -5.671738,-0.216408 -1.463559,0.558937 -3.550796,2.421696 -4.468839,3.988218 -0.970256,1.655617 -1.498912,4.576008 -1.288084,7.115598 0.303794,3.659428 1.414409,9.524434 2.645558,13.970812 1.369523,4.946129 2.316369,8.942978 3.052294,12.884396 1.569408,8.405357 1.943494,9.716597 6.160779,21.594727 3.44775,9.71073 4.56388,13.57064 6.06285,20.9673 1.22708,6.05493 1.37393,7.13766 1.36856,10.09006 -0.007,3.70854 -0.41982,6.04899 -1.88522,10.68129 -1.1937,3.77346 -1.77781,4.92912 -2.49131,4.92912 -0.92087,0 -4.56879,-3.76039 -9.753467,-10.05416 -2.165609,-2.62888 -6.014648,-6.56716 -8.464595,-8.66086 -4.294854,-3.67035 -10.953623,-6.04846 -19.544842,-6.98026 -3.288083,-0.35663 -5.002308,-0.14111 -7.292298,0.91679 -2.545614,1.17599 -3.861615,3.11128 -3.861615,5.67883 0,2.16548 0.576382,2.90172 4.372211,5.58488 2.539656,1.79521 4.394507,3.47655 9.34689,8.47254 11.185978,11.28445 13.857515,14.78269 17.593906,23.03829 3.552949,7.85029 3.700298,8.05821 10.215829,14.41541 11.924761,11.63499 25.668151,25.55835 26.302711,26.64716 0.84987,1.45825 1.86677,4.51227 2.6939,8.09051 0.75653,3.27282 1.24858,10.25135 1.12321,15.93004 l -0.0789,3.57187 -1.19062,0.0496 c -0.65484,0.0273 -2.55984,-0.22175 -4.23333,-0.55346 z"
           style="fill:#1ba2b8;stroke-width:0.26458332" />
        <path
           inkscape:connector-curvature="0"
           id="path7968"
           d="m 123.95729,239.71572 c -5.43764,-1.09916 -12.03854,-3.01013 -12.03854,-3.48517 0,-0.16533 0.24867,-0.21729 0.59531,-0.1244 0.32742,0.0877 3.78024,0.16117 7.67292,0.16316 l 7.0776,0.004 v 1.98437 c 0,2.29961 0.26845,2.18123 -3.30729,1.45843 z m 66.41331,-10.58187 c -0.57931,-0.93735 -3.83935,-7.64923 -3.83935,-7.90459 0,-0.16987 0.66208,-0.60165 1.47129,-0.95952 2.164,-0.95703 8.73109,-4.65215 12.77019,-7.18544 3.0577,-1.91776 4.01477,-2.42903 4.01477,-2.14471 0,0.29183 -1.16933,6.11959 -1.62422,8.09485 -0.3768,1.6362 -0.7579,2.64855 -1.12629,2.99185 -0.84261,0.78521 -7.72514,5.33236 -9.7282,6.42721 -1.13226,0.61888 -1.82573,0.86231 -1.93819,0.68035 z m -79.98169,-3.58487 c -2.80595,-0.1845 -5.36579,-0.4004 -5.68854,-0.47978 -0.32276,-0.0794 -2.07511,-0.33611 -3.89412,-0.57053 -3.947425,-0.50871 -11.573886,-2.16264 -16.083312,-3.48795 l -3.251017,-0.95547 -2.834399,-2.43712 c -3.072157,-2.64155 -9.530599,-9.13881 -10.78147,-10.84626 -0.426431,-0.58208 -1.618435,-2.12989 -2.648899,-3.43958 -2.116506,-2.69001 -5.675903,-7.91102 -5.675903,-8.32555 0,-0.34439 0.860351,-0.34743 2.643053,-0.009 6.003305,1.1385 24.477551,2.34822 30.562155,2.00125 1.600729,-0.0913 3.043648,-0.0728 3.206488,0.0411 0.162838,0.11391 1.026642,1.27867 1.919566,2.58835 0.892921,1.30969 2.330328,3.33375 3.194238,4.49792 0.8639,1.16417 2.04347,2.77151 2.62126,3.57187 2.99608,4.15025 12.11053,14.01601 15.58293,16.86744 0.61846,0.50787 1.12448,1.02811 1.12448,1.1561 0,0.30584 -3.6906,0.24217 -9.99651,-0.17247 z M 215.89524,208.8224 c -0.003,-0.10914 0.19853,-1.89909 0.44698,-3.97766 l 0.45173,-3.77921 2.36489,-2.03885 c 1.30068,-1.12137 4.36283,-4.09392 6.80476,-6.60568 2.44193,-2.51176 4.51276,-4.56683 4.60185,-4.56683 0.48452,0 -4.50508,8.36173 -7.319,12.26541 -1.99347,2.76549 -2.89903,3.95118 -5.70734,7.47289 -1.03924,1.30324 -1.63149,1.74636 -1.64387,1.22993 z M 187.325,208.44739 c 0,-0.1758 1.05905,-3.00595 2.35344,-6.28923 1.29439,-3.28329 2.66939,-6.92212 3.05555,-8.08629 1.19444,-3.60089 2.32726,-10.9807 3.33036,-21.69583 0.29971,-3.20146 0.61599,-6.56158 0.70284,-7.46694 l 0.15792,-1.6461 3.04395,-2.38879 c 1.67418,-1.31384 3.19665,-2.38879 3.38327,-2.38879 0.68337,0 2.25785,10.67049 3.02156,20.47748 0.33626,4.31802 0.34691,15.78695 0.0155,16.65871 -0.40541,1.06629 -4.85392,4.27855 -15.09561,10.90052 -2.42566,1.56836 -3.96875,2.31692 -3.96875,1.92526 z M 80.433333,186.52461 c -4.709943,-0.32069 -10.888691,-0.96786 -15.345833,-1.60735 -4.40109,-0.63145 -11.80366,-1.99554 -12.217598,-2.25137 -0.886172,-0.54769 -4.41955,-10.41374 -5.817175,-16.24297 -1.361736,-5.67955 -2.327661,-12.18187 -2.628381,-17.69349 -0.153818,-2.81917 -0.180546,-5.2249 -0.0594,-5.34605 0.121147,-0.12114 1.350706,0.0634 2.732346,0.41004 1.381644,0.34668 3.858321,0.89521 5.503725,1.21897 2.954274,0.58131 2.997748,0.60056 3.47998,1.54074 0.612503,1.19416 1.074132,1.60424 4.508582,4.00513 2.125753,1.48603 4.228984,3.4059 8.956601,8.17576 11.130293,11.22975 13.871623,14.80898 17.517346,22.87161 1.173168,2.59449 2.086493,4.76379 2.029616,4.82067 -0.244303,0.2443 -5.619406,0.30532 -8.659813,0.0983 z m 136.690097,-4.42513 c -0.40435,-9.57154 -1.69687,-19.988 -3.50142,-28.2182 -0.34784,-1.5864 -0.63243,-3.17344 -0.63243,-3.52677 0,-0.46394 1.02529,-1.72085 3.69032,-4.52399 4.22985,-4.44906 8.31562,-9.35878 11.59702,-13.93573 1.25195,-1.74625 2.65112,-3.65125 3.10926,-4.23333 0.92526,-1.17558 4.62215,-7.07276 4.62215,-7.37312 0,-0.4379 1.98829,-3.60579 2.21557,-3.53002 0.36843,0.1228 0.85986,1.96415 1.74476,6.53751 1.33919,6.92125 1.70408,10.97015 1.71678,19.05 l 0.0114,7.27604 -1.25232,2.91042 c -2.45888,5.71454 -7.37716,14.67975 -9.50727,17.33021 -0.40933,0.50932 -1.79782,2.35479 -3.08553,4.10104 -3.50685,4.75558 -9.62336,11.77396 -10.261,11.77396 -0.21913,0 -0.35994,-1.09623 -0.46732,-3.63802 z M 101.32747,160.92495 c -1.532336,-1.57139 -3.794523,-4.10252 -5.027082,-5.62473 -1.232556,-1.52221 -3.253044,-3.83871 -4.489971,-5.14778 l -2.248959,-2.38013 1.719792,-0.18725 c 0.945885,-0.10299 3.684323,-0.37836 6.085417,-0.61192 2.401093,-0.23357 5.884793,-0.6682 7.741553,-0.96584 1.85675,-0.29765 3.57141,-0.46616 3.81035,-0.37447 0.38244,0.14676 0.41412,0.53786 0.26473,3.2685 -0.23312,4.2611 -1.83368,10.82286 -3.38651,13.88357 -0.80673,1.5901 -1.30873,1.38118 -4.46932,-1.85995 z m 107.70218,-24.20151 c -0.26983,-0.61847 -0.66535,-1.72232 -0.87893,-2.45301 l -0.38833,-1.32853 1.45887,-2.50793 c 0.80238,-1.37936 2.17115,-4.10311 3.04172,-6.05279 1.74847,-3.91581 2.47468,-5.22615 5.57727,-10.06347 2.48297,-3.87127 4.06959,-7.15995 5.48847,-11.37629 1.63595,-4.861408 1.34835,-7.924105 -0.96095,-10.233412 -1.25943,-1.25943 -2.44101,-1.690534 -4.61569,-1.684055 -2.00887,0.006 -3.45883,0.73695 -5.41081,2.727741 -2.24967,2.2944 -4.20206,5.354481 -7.33398,11.494946 -2.86824,5.6235 -4.84658,8.90388 -5.22771,8.66833 -0.13123,-0.0811 -0.97855,-1.5442 -1.88291,-3.25132 -0.90438,-1.70711 -2.46234,-4.45019 -3.46216,-6.09572 -0.99981,-1.64552 -1.81784,-3.11195 -1.81784,-3.25873 0,-0.14678 1.28231,-1.71897 2.84958,-3.493763 6.47547,-7.332903 11.89327,-14.964889 15.76698,-22.21075 0.83631,-1.564348 1.60637,-2.84427 1.71123,-2.84427 0.39611,0 4.03398,3.957571 6.44507,7.011458 4.94523,6.26364 9.8763,13.945317 12.80499,19.94775 0.70871,1.452525 0.91397,2.158215 0.79736,2.741265 -0.21759,1.08795 -5.09341,10.28564 -8.21178,15.4906 -2.73234,4.56062 -5.60031,8.69314 -8.75856,12.62038 -2.11316,2.62769 -6.18899,7.27605 -6.37987,7.27605 -0.0668,0 -0.34219,-0.50602 -0.61202,-1.12448 z m -139.9734,0.19286 c -6.793037,-0.60623 -16.164224,-2.24222 -21.563542,-3.76449 l -2.645833,-0.74595 0.03355,-1.34175 c 0.11607,-4.64232 2.78493,-16.13471 5.398476,-23.2464 0.798441,-2.17264 3.707341,-8.859379 4.172386,-9.591148 0.493845,-0.777086 0.847329,-0.753644 3.366209,0.223253 4.424011,1.715765 10.587541,3.382345 14.67834,3.968945 1.236927,0.17737 2.3269,0.39313 2.42216,0.47947 0.09526,0.0863 0.01167,2.83588 -0.185743,6.1101 -0.473186,7.84782 -0.464542,11.75104 0.04366,19.71146 0.232254,3.63802 0.439328,7.0313 0.460164,7.54063 0.03771,0.92179 0.03242,0.92621 -1.15274,0.96215 -0.654843,0.0199 -2.917031,-0.11796 -5.027083,-0.30627 z m 17.097198,-0.45745 c -1.070555,-5.76759 -1.497201,-19.41501 -0.852895,-27.28218 0.236733,-2.89059 0.495636,-5.36114 0.575342,-5.4901 0.07971,-0.12897 1.060627,-0.23552 2.179825,-0.23679 1.119198,-0.001 3.519723,-0.17736 5.3345,-0.39134 1.814777,-0.21397 3.3733,-0.30223 3.463388,-0.19614 0.09009,0.1061 0.436753,1.14541 0.770371,2.30958 0.333616,1.16416 1.707581,5.21229 3.053251,8.99583 3.73009,10.48764 5.58953,16.37427 6.19361,19.60775 0.20299,1.08656 0.17117,1.21847 -0.34066,1.41202 -1.47638,0.55834 -15.534143,2.12389 -19.122089,2.12954 -1.026774,0.002 -1.104982,-0.0519 -1.254643,-0.85817 z m 93.554342,-6.67597 c -1.05256,-0.49002 -1.49199,-0.87292 -1.77263,-1.54457 -0.67378,-1.6126 -0.93928,-5.01256 -0.66153,-8.47155 0.42252,-5.26188 0.43432,-5.30613 1.67746,-6.28881 0.60383,-0.47732 1.94477,-1.61872 2.97986,-2.53644 1.0351,-0.91773 2.07158,-1.66859 2.30329,-1.66859 0.24318,0 0.89676,0.81097 1.54593,1.91823 0.61855,1.05502 1.38526,2.27541 1.7038,2.71198 0.8317,1.13984 4.31998,8.16907 4.49035,9.04849 0.12633,0.65211 -0.16303,1.06711 -2.41009,3.45652 -3.2529,3.45898 -4.1961,4.0323 -6.6281,4.02886 -1.38416,-0.002 -2.16912,-0.16101 -3.22834,-0.65412 z m -28.31312,-11.63576 c -0.58496,-1.28383 -1.24336,-5.70617 -2.68431,-18.02979 -0.56,-4.789376 -1.3153,-8.73507 -2.83012,-14.784686 l -0.92639,-3.699647 0.61422,-0.492295 c 0.33782,-0.270761 2.18119,-1.909905 4.09637,-3.64254 1.91518,-1.732634 3.62504,-3.150245 3.7997,-3.150245 0.32797,0 4.91592,3.557206 5.06803,3.929427 0.047,0.115128 1.12131,1.127054 2.38726,2.248723 l 2.30172,2.039403 -0.14069,1.381326 c -0.25983,2.550922 -1.17184,7.420388 -2.61874,13.982105 -1.61178,7.309479 -2.12429,10.434629 -2.39432,14.599999 -0.18167,2.8023 -0.2017,2.87132 -1.00815,3.47413 -1.14971,0.85939 -4.63814,2.79489 -5.03734,2.79489 -0.1819,0 -0.46416,-0.29287 -0.62724,-0.6508 z M 87.667883,92.72374 c -0.18106,-0.471834 1.017005,-6.024235 2.195229,-10.17374 0.759167,-2.673644 1.150406,-3.704167 1.406298,-3.704167 0.204076,0 2.374511,7.828939 3.104404,11.197844 0.369149,1.703848 0.386326,2.108092 0.09716,2.286805 -0.193191,0.119401 -1.376865,0.296124 -2.630387,0.392718 -1.253519,0.0966 -2.664825,0.241409 -3.136231,0.321802 -0.661924,0.112887 -0.897948,0.03973 -1.036473,-0.321262 z M 73.686458,92.166432 c -5.933516,-1.253236 -13.096875,-3.468833 -13.096875,-4.050808 0,-0.350062 3.695383,-5.50147 6.459919,-9.005207 3.134976,-3.973227 9.401836,-10.214822 13.836192,-13.780418 3.680029,-2.95905 4.526815,-3.553601 4.747252,-3.333163 0.08581,0.08581 -0.38182,1.441389 -1.039172,3.0124 -2.749539,6.571142 -5.528813,15.812299 -7.215968,23.993295 -0.356751,1.729881 -0.648639,3.188396 -0.648639,3.241146 0,0.126124 -2.363978,0.06611 -3.042709,-0.07725 z M 183.13884,88.669315 c -1.48979,-1.873126 -2.91603,-3.593304 -3.16942,-3.822615 -0.39985,-0.36186 -0.43709,-0.724548 -0.2819,-2.745878 0.6956,-9.060632 0.79849,-11.382081 0.71297,-16.08728 -0.0889,-4.893906 -0.14143,-5.377088 -0.69833,-6.428068 -0.9547,-1.801707 -2.43489,-3.250862 -4.15112,-4.064082 -1.32302,-0.626904 -1.93201,-0.752258 -3.65541,-0.752433 -1.13736,-1.14e-4 -2.30841,0.1285 -2.60235,0.285811 -0.29394,0.157311 -0.59146,0.228989 -0.66117,0.159284 -0.1346,-0.134596 3.55583,-6.994165 3.86595,-7.185832 0.24558,-0.151775 5.362,1.646211 8.47694,2.978926 8.58019,3.670995 14.02306,6.740892 20.57135,11.602675 1.79179,1.330311 2.97657,2.391968 2.97657,2.66724 0,0.489718 -2.94278,5.969932 -4.72881,8.80627 -0.59562,0.945886 -1.55728,2.507697 -2.13703,3.470693 -2.91475,4.841606 -10.71917,14.520974 -11.70817,14.520974 -0.0558,0 -1.32027,-1.532557 -2.81007,-3.405685 z m -61.39421,-5.524002 c -0.1358,-0.254662 -1.07655,-2.30849 -2.09055,-4.564063 -1.01401,-2.255573 -2.79848,-6.125104 -3.96549,-8.598958 -6.66489,-14.128319 -6.76342,-14.350609 -6.57647,-14.837789 0.14418,-0.375727 3.70297,0.309592 8.99142,1.731481 4.09771,1.101744 4.36321,1.233165 4.51048,2.232711 0.0664,0.450686 0.65821,4.15318 1.31512,8.227763 0.65692,4.074584 1.32265,8.65849 1.47941,10.186459 0.15676,1.527968 0.33671,3.099776 0.39989,3.492904 0.10431,0.649082 -0.0477,0.801082 -1.65323,1.653646 -2.04101,1.083781 -2.08208,1.091888 -2.41058,0.475846 z m 20.46316,-14.91682 c -0.0985,-0.582991 -0.13749,-1.094547 -0.0867,-1.13679 0.0508,-0.04224 0.47936,0.08518 0.95231,0.28317 1.20409,0.504068 1.09623,1.280316 -0.24406,1.756418 -0.35069,0.124571 -0.47966,-0.06274 -0.62159,-0.902798 z m 19.78336,-0.817509 c -0.61847,-0.456804 -1.12448,-1.019358 -1.12448,-1.250117 0,-0.433716 2.61616,-3.83707 2.80465,-3.648572 0.16649,0.166486 -0.22026,5.751462 -0.39747,5.739722 -0.087,-0.0058 -0.66424,-0.38423 -1.2827,-0.841033 z m -12.46676,-8.532268 c -1.07227,-0.644787 -3.66474,-2.041665 -5.76105,-3.104174 -2.68889,-1.362855 -3.84538,-2.087689 -3.9266,-2.461 -1.14785,-5.276139 -1.80041,-7.037682 -3.16776,-8.551178 l -0.95137,-1.05306 3.0961,-0.193453 c 4.66005,-0.291171 12.53064,0.07478 17.8189,0.828506 2.54622,0.362908 4.73423,0.764564 4.86223,0.892569 0.13394,0.133932 -0.17934,0.969622 -0.73791,1.968424 -2.14172,3.829756 -8.299,12.544898 -9.01839,12.764823 -0.14552,0.04449 -1.14189,-0.44667 -2.21415,-1.091457 z M 121.11302,46.937107 c -0.69122,-0.21255 -1.25677,-0.492368 -1.25677,-0.621824 0,-0.243197 3.25983,-1.071533 4.2169,-1.071533 0.51332,0 0.50402,0.05284 -0.18452,1.048292 -0.80358,1.161775 -0.96969,1.200378 -2.77561,0.645065 z"
           style="fill:#693792;stroke-width:0.26458332" />
      </g>
    </g>
  </g>
</svg>
