<?xml version="1.0" standalone="no"?>
<!DOCTYPE svg PUBLIC "-//W3C//DTD SVG 20010904//EN"
 "http://www.w3.org/TR/2001/REC-SVG-20010904/DTD/svg10.dtd">
<svg xmlns="http://www.w3.org/2000/svg"
     width="700.000000pt" height="700.000000pt" viewBox="0 0 16 16"
     preserveAspectRatio="xMidYMid meet">
<metadata>
Created by potrace 1.11, written by Peter Selinger 2001-2013
</metadata>
<g transform="matrix(0.00227073,0,0,-0.00227073,0.05308947,15.973997)"
fill="#000000" stroke="none">
<path d="m 3385,6813.0002 c -494,-20 -927,-131 -1370,-348 -916,-451 -1580,-1317 -1780,-2321 -50,-248 -57,-354 -53,-725 4,-299 7,-336 32,-479 127,-711 441,-1319 940,-1815 320,-318.00001 695,-564.00001 1111,-728.00001 264,-104 563,-187 688,-190 l 72,-2 3,90 c 4,125 -14,397 -33,490 -26,123 -70,242.00001 -108,288.00001 -19,23 -241,249 -494,502 -483,483 -487,487 -562,655 -105,232 -163,326 -299,483 -139,162 -440,457 -543,534 -130,97 -142,113 -137,185 5,71 38,117 111,156 48,25 60,27 167,26 189,-2 414,-61 556,-145 78,-46 222,-185 368,-354 161,-187 249,-275 275,-275 30,0 54,44 90,168 65,226 65,333 1,647 -34,169 -62,264 -180,615 -117,351 -144,444 -175,600 -20,102 -63,289 -95,415 -127,506 -116,660 59,763 35,20 57,26 106,25 98,-1 147,-37 204,-152 42,-83 75,-180 130,-385 56,-206 54,-199 161,-456 43,-102 119,-286 170,-410 159,-389 220,-497 300,-530 50,-21 63,-8 55,53 -6,48 -58,337 -120,671 -14,77 -35,237 -46,355 -19,203 -31,293 -95,724 -33,223 -35,346 -7,408 59,130 196,196 321,155 140,-47 152,-80 262,-776 12,-74 50,-256 85,-405 81,-342 88,-385 125,-678 42,-333 57,-409 89,-457 30,-45 86,-90 113,-90 41,0 45,16 89,410 6,52 33,201 60,330 76,361 79,384 89,740 11,406 18,443 100,512 97,84 234,75 333,-20 21,-20 46,-50 54,-67 24,-45 28,-287 9,-555 -9,-124 -20,-360 -26,-525 -6,-165 -17,-365 -26,-445 -8,-80 -19,-192 -25,-250 -13,-120 -7,-266 13,-307 19,-41 90,-73 158,-73 79,0 122,31 264,189 219,243 268,311 414,583 112,208 145,261 211,331 68,72 103,91 176,90 75,-1 113,-20 153,-77 25,-36 27,-47 26,-130 0,-69 -6,-107 -23,-156 -40,-111 -104,-240 -186,-370 -43,-69 -108,-188 -145,-265 -37,-77 -106,-207 -154,-289 -145,-247 -217,-405 -255,-551 -27,-108 -55,-308 -86,-615 -30,-302 -58,-499 -84,-601 -11,-41 -62,-187 -114,-325 -52,-137 -104,-280 -116,-319 -37,-126 -112,-448.00001 -126,-545.00001 -20,-127 -20,-393 -1,-409 21,-17 83,6 311,119 339,167 602,356 870,625.00001 610,609 949,1393 972,2250 18,649 -140,1260 -465,1806 -327,549 -842,1022 -1399,1286 -319,151 -708,271 -998,308 -117,15 -426,36 -475,33 -14,-1 -56,-3 -95,-5 z"/>
</g>
</svg>